Coordinates
version=1
nRows=6
nColumns=34
inDegrees=yes

Units are S.I. units (second, meters, Newtons, ...)
If the header above contains a line with 'inDegrees', this indicates whether rotational values are in degrees (yes) or radians (no).

endheader
time	pelvis_tilt	pelvis_list	pelvis_rotation	pelvis_tx	pelvis_ty	pelvis_tz	hip_flexion_r	hip_adduction_r	hip_rotation_r	knee_angle_r	ankle_angle_r	subtalar_angle_r	mtp_angle_r	hip_flexion_l	hip_adduction_l	hip_rotation_l	knee_angle_l	ankle_angle_l	subtalar_angle_l	mtp_angle_l	lumbar_extension	lumbar_bending	lumbar_rotation	arm_flex_r	arm_add_r	arm_rot_r	elbow_flex_r	pro_sup_r	arm_flex_l	arm_add_l	arm_rot_l	elbow_flex_l	pro_sup_l
      2.93333330	    -19.29156889	      0.80430927	     -2.05767256	      0.42728286	      0.55262132	     -0.10857580	     86.53784873	     -7.61155627	      4.74915871	    106.95163559	     42.84446001	     -6.57856337	      0.00000000	     86.92651034	    -16.02257448	      0.65596177	    105.78394612	     34.86708579	    -12.06562727	      0.00000000	    -24.39904138	     -2.04710306	      5.39781199	    101.83899772	     -1.38908169	     70.22613653	    110.96006751	     90.58641617	    114.06353925	      6.38981865	     87.88044282	    119.49543165	     78.29850661
      2.95000000	    -19.21936846	      0.80826007	     -2.26697060	      0.42365947	      0.54788965	     -0.10950989	     87.08845540	     -7.55692801	      4.92306721	    107.55033134	     42.80071221	     -6.50802803	      0.00000000	     87.50597103	    -15.97659247	      0.86388425	    106.49630304	     35.09693136	    -12.27549552	      0.00000000	    -24.82775228	     -2.06274870	      5.38150765	    102.04149503	     -1.97548934	     69.63915480	    110.32360418	     90.51162579	    114.47622108	      5.81618313	     87.74795080	    119.12312830	     78.19971225
      2.96666670	    -19.08937289	      0.73385326	     -2.43689302	      0.41812869	      0.54257500	     -0.11005418	     87.93981481	     -7.49679833	      5.00712700	    108.25515953	     42.93316829	     -6.12028313	      0.00000000	     88.43024973	    -15.88454463	      1.26737372	    107.41451078	     34.91226783	    -12.70520000	      0.00000000	    -25.36318063	     -2.02092138	      4.88594921	    101.89684550	     -1.55116190	     67.51896123	    108.55941339	     90.08071662	    115.45645974	      5.11513179	     87.20408811	    118.37600172	     77.65150648
      2.98333330	    -19.21841164	      0.64728647	     -2.50906129	      0.41919993	      0.53807467	     -0.10982573	     88.92728749	     -7.42530061	      5.18650589	    109.01001877	     42.84477515	     -6.00841614	      0.00000000	     89.45722598	    -15.83010031	      1.67063600	    108.24848815	     34.81327315	    -12.92490992	      0.00000000	    -25.67122314	     -1.88090853	      4.65622497	    102.16730122	     -1.47005660	     65.94827446	    107.45628757	     89.80136939	    116.09145743	      4.39222833	     86.68438869	    117.95353785	     77.29760030
      3.00000000	    -19.36818448	      0.66368562	     -2.37816230	      0.42319406	      0.53331362	     -0.11000711	     89.73967145	     -7.57977530	      5.41214641	    109.84911120	     42.70359082	     -6.24452747	      0.00000000	     90.24571357	    -15.79676723	      1.85964271	    109.01602651	     34.69823789	    -13.23268947	      0.00000000	    -25.36426289	     -1.85471758	      4.25610678	    101.87162928	     -0.67244221	     67.14006682	    108.62220949	     89.63031656	    115.47303687	      3.62074624	     86.75469009	    118.25401472	     76.87109906
      3.01666670	    -19.27351302	      0.56971582	     -2.36663585	      0.41898655	      0.53130534	     -0.10937247	     90.11250228	     -7.43470029	      5.44061863	    110.32539342	     42.62942703	     -6.27939274	      0.00000000	     90.79914065	    -15.83227476	      2.11495279	    109.58879234	     34.67177622	    -13.29421890	      0.00000000	    -25.58238526	     -1.97370358	      3.79057754	    101.76176190	     -0.10167773	     67.71466232	    109.37848671	     89.62588262	    115.27692947	      3.30784201	     86.72585391	    118.07207495	     76.75873768
